<svg xmlns="http://www.w3.org/2000/svg" width="22" height="22" viewBox="0 0 22 22" fill="none"><path d="M14.5 9.25H16.25" stroke="#FAFAFA" stroke-width="1.3125" stroke-linecap="round" stroke-linejoin="round"></path><path d="M14.5 12.75H16.25" stroke="#FAFAFA" stroke-width="1.3125" stroke-linecap="round" stroke-linejoin="round"></path><path d="M5.89844 13.6255C6.07881 13.1127 6.4139 12.6686 6.85745 12.3545C7.30101 12.0403 7.83115 11.8716 8.37469 11.8716C8.91823 11.8716 9.44837 12.0403 9.89192 12.3545C10.3355 12.6686 10.6706 13.1127 10.8509 13.6255" stroke="#FAFAFA" stroke-width="1.3125" stroke-linecap="round" stroke-linejoin="round"></path><path d="M8.375 11.875C9.3415 11.875 10.125 11.0915 10.125 10.125C10.125 9.1585 9.3415 8.375 8.375 8.375C7.4085 8.375 6.625 9.1585 6.625 10.125C6.625 11.0915 7.4085 11.875 8.375 11.875Z" stroke="#FAFAFA" stroke-width="1.3125" stroke-linecap="round" stroke-linejoin="round"></path><path d="M18 4.875H4C3.0335 4.875 2.25 5.6585 2.25 6.625V15.375C2.25 16.3415 3.0335 17.125 4 17.125H18C18.9665 17.125 19.75 16.3415 19.75 15.375V6.625C19.75 5.6585 18.9665 4.875 18 4.875Z" stroke="#FAFAFA" stroke-width="1.3125" stroke-linecap="round" stroke-linejoin="round"></path></svg>